<svg aria-hidden="true" style="position:absolute;width:0;height:0" xmlns="http://www.w3.org/2000/svg" overflow="hidden"><defs><symbol id="logo" viewBox="0 0 39 32"><path d="M22.389 9.799l-.749-.572a.572.572 0 00-.801.08L10.467 21.218l.16.177 2.569-2.369a.393.393 0 01-.239-.445c.018-.09.068-.172.14-.229a.403.403 0 01.485-.011.391.391 0 01.141.198l3.387-3.141a.29.29 0 01.366 0l.172.126a.288.288 0 00.384-.045l4.428-4.966a.466.466 0 00.129-.374.467.467 0 00-.198-.341z"/><path d="M27.263 13.152a23.137 23.137 0 01-7.506 3.518 40.723 40.723 0 01-8.164 1.213c.056.406.155.805.297 1.19 1.556 1.407 13.273-.995 15.561-3.776.486-.578-.189-2.145-.189-2.145zM13.35 19.027a.387.387 0 01-.359-.241.393.393 0 01.084-.424.39.39 0 11.426.636.384.384 0 01-.15.028zM2.28 12.328l.092-.395 1.487.338c.123.227.199.476.223.732.028.272.011.546-.051.812a2.152 2.152 0 01-.492.995 1.963 1.963 0 01-.881.572 2.088 2.088 0 01-1.081.04 2.001 2.001 0 01-.955-.503 1.884 1.884 0 01-.543-.898 2.156 2.156 0 010-1.144c.061-.28.172-.547.326-.79.146-.22.342-.402.572-.532l.206.315a1.652 1.652 0 00-.756 1.11c-.071.296-.065.605.017.898.077.278.229.53.441.727.217.21.489.355.784.418.286.08.589.08.875 0 .274-.091.52-.25.715-.463.2-.23.338-.508.4-.807.094-.362.07-.745-.069-1.093l-1.31-.332zM5.518 8.729l-1.333 1.779.572 1.024-.263.355-2.117-3.862.246-.338 4.308.927-.269.355-1.144-.24zm-.378-.091l-2.288-.515 1.144 2.054L5.14 8.638zM5.14 5.04l.343-.257 2.18 2.918 1.796-1.344.217.292-2.134 1.596-2.403-3.204zM8.744 2.654l.383-.172 1.51 3.307 2.042-.927.149.332-2.426 1.104-1.659-3.644zM16.285 3.97l.086.36-2.758.646-.915-3.902L15.375.45l.08.355-2.288.532.326 1.384 2.014-.475.086.355-2.02.469.343 1.447 2.369-.549zM20.215 4.113l-.955-1.259a2.847 2.847 0 01-.32 0l-1.076.034.04 1.27h-.423L17.349.153l1.522-.006c.43-.04.861.076 1.213.326a1.25 1.25 0 01.469.996 1.32 1.32 0 01-.212.801 1.331 1.331 0 01-.664.486l1.001 1.339-.463.017zm-.401-1.883a.92.92 0 00.292-.75.926.926 0 00-.337-.732 1.39 1.39 0 00-.898-.235l-1.087.04.069 2.002 1.064-.034c.325.012.643-.091.898-.292zM23.241 3.049l-.206 1.367-.418-.063.212-1.344L21.645.148l.446.069 1.013 2.437L24.82.634l.4.086-1.979 2.328zM28.899 2.808l.498.646-.217.172-.498-.664-.315.749-.24-.103.32-.749-.824.109v-.275l.812-.092-.503-.646.223-.172.441.652.309-.755.246.103-.292.767.824-.114v.28l-.784.092zM30.81 7.419a1.587 1.587 0 01-.246-.692l.338-.149c.025.227.099.445.217.641.128.219.294.413.492.572.204.195.464.321.744.36a.63.63 0 00.644-.404.525.525 0 00.025-.208 1.07 1.07 0 00-.137-.395 5.944 5.944 0 00-.349-.509c-.152-.2-.29-.41-.412-.629a1.153 1.153 0 01-.149-.538c0-.212.079-.416.223-.572.125-.151.289-.264.475-.326.207-.06.428-.06.635 0 .267.087.514.227.727.412.176.146.332.316.463.503.122.174.212.367.269.572l-.326.172a2.019 2.019 0 00-.252-.538 2.108 2.108 0 00-.383-.395 1.272 1.272 0 00-.738-.349.608.608 0 00-.537.234.482.482 0 00-.131.389c.013.144.06.283.137.406.08.132.194.303.349.509.153.195.291.402.412.618.095.164.148.349.154.538a.842.842 0 01-.223.572 1.018 1.018 0 01-.481.326 1.09 1.09 0 01-.635 0 2.114 2.114 0 01-.732-.412 2.595 2.595 0 01-.572-.709zM36.566 8.255l-.807-1.144.297-.212 1.859 2.655-.297.212-.807-1.144-2.986 2.088-.24-.349 2.981-2.105zM35.284 12.957a1.9 1.9 0 01.572-.893 2.03 2.03 0 01.938-.475 2.068 2.068 0 011.076.04c.337.111.638.309.875.572.246.284.414.627.486.995.095.362.095.742 0 1.104a1.967 1.967 0 01-.572.893 2.127 2.127 0 01-2.042.446 1.918 1.918 0 01-.875-.572 2.15 2.15 0 01-.486-.99 2.196 2.196 0 01.029-1.121zm.75 1.82c.191.217.438.378.715.463a1.768 1.768 0 001.659-.367c.211-.194.367-.441.452-.715a1.836 1.836 0 00-.372-1.682 1.621 1.621 0 00-.738-.463 1.709 1.709 0 00-.881 0 1.581 1.581 0 00-.778.395 1.6 1.6 0 00-.452.721 1.71 1.71 0 000 .887c.063.284.199.546.395.761zM34.849 19.599l1.482-.572c0-.103.034-.206.063-.315l.28-1.035-1.213-.315.109-.406 3.867 1.035-.389 1.447c-.088.422-.323.8-.664 1.064a1.237 1.237 0 01-1.087.161 1.24 1.24 0 01-.978-1.208l-1.579.572.109-.429zm1.917.161a1.034 1.034 0 00.636.498 1.022 1.022 0 00.8-.115c.252-.203.425-.489.486-.807l.275-1.03-1.939-.521-.275 1.03a1.38 1.38 0 00.017.944zM32.795 23.284l-.292-.223 1.716-2.26 3.192 2.42-1.659 2.191-.292-.223 1.402-1.848-1.144-.864-1.253 1.653-.286-.217 1.282-1.653-1.184-.898-1.482 1.922zM31.457 27.843l-.818.046v-.275l.818-.006-.441-.681.223-.143.435.687.355-.767.246.132-.389.721.818-.046v.28h-.83l.441.681-.223.143-.435-.687-.378.744-.24-.137.418-.692zM24.019 27.386l.692.383a1.784 1.784 0 011.144-.904c.227-.071.466-.096.704-.074.206.016.403.087.572.206a.9.9 0 01.32.458c.069.226.057.469-.034.687a2.865 2.865 0 01-.572.795c.189.101.364.226.521.372a1 1 0 01.235.395.761.761 0 01-.149.669c-.153.22-.381.377-.641.441a.996.996 0 01-.709 0c-.102-.044-.192-.11-.263-.195s-.122-.184-.149-.292a.776.776 0 01.04-.572 2.74 2.74 0 01.509-.704l-1.379-.767a2.704 2.704 0 00-.034.818h-.349a2.722 2.722 0 01.114-.995l-.721-.4.149-.32zm.996.572l1.516.841a2.38 2.38 0 00.486-.658.725.725 0 000-.515.618.618 0 00-.4-.429 1.146 1.146 0 00-.732 0 1.364 1.364 0 00-.893.744l.023.017zm2.151 2.288a.523.523 0 00.046-.424.7.7 0 00-.183-.297 2.51 2.51 0 00-.475-.315 3.044 3.044 0 00-.452.572.571.571 0 00-.046.423.495.495 0 00.251.304.64.64 0 00.452 0 .677.677 0 00.383-.269l.023.006zM17.046 31.797l.08-4.005h.406l-.063 3.204 1.625-2.666h.2l1.522 2.712.057-3.187h.406l-.074 4.005h-.349l-1.682-2.992-1.779 2.935-.349-.006zM15.055 27.609a1.945 1.945 0 01.521 1.979 2.048 2.048 0 01-.543.933c-.254.25-.573.424-.921.503a2.22 2.22 0 01-1.11-.034 2.145 2.145 0 01-.961-.521 1.917 1.917 0 01-.532-.904 2.115 2.115 0 01.572-2.014 1.98 1.98 0 01.904-.515 2.197 2.197 0 011.104.034c.364.092.697.277.967.538zm-1.951-.2c-.28.065-.536.208-.738.412-.211.21-.361.473-.435.761-.08.286-.08.589 0 .875.067.279.212.532.418.732.215.211.481.362.772.441a1.8 1.8 0 00.887 0c.28-.069.537-.211.744-.412.21-.211.36-.473.435-.761.08-.288.08-.593 0-.881a1.607 1.607 0 00-.423-.732 1.72 1.72 0 00-.778-.435 1.647 1.647 0 00-.881 0zM8.773 24.748l.154 1.573c.098.042.194.09.286.143l.933.538.629-1.11.372.212-2.002 3.45-1.304-.749a1.817 1.817 0 01-.858-.915 1.26 1.26 0 01.126-1.087 1.31 1.31 0 01.601-.572c.261-.108.55-.13.824-.063l-.166-1.682.406.263zm-.652 1.808a1.028 1.028 0 00-.738 1.288c.134.296.367.537.658.681l.921.532 1.001-1.716-.921-.532a1.412 1.412 0 00-.921-.28v.029zM5.386 22.065l.257-.257 1.974 2.031-2.861 2.792-1.905-1.968.263-.257 1.619 1.665.978-.99-1.419-1.476.275-.263 1.447 1.487 1.064-1.035-1.693-1.728zM1.135 19.817l.137-.79.269.04-.154.812.761-.28.092.252-.772.263.635.538-.183.206-.612-.572-.143.812-.275-.052.16-.812-.767.275-.086-.223.767-.269-.635-.532.189-.206.618.538z"/></symbol><symbol id="instagram" viewBox="0 0 32 32"><path d="M31.916 9.408c-.075-1.7-.35-2.869-.744-3.882a7.803 7.803 0 00-1.85-2.838A7.867 7.867 0 0026.49.844C25.471.45 24.308.175 22.608.1 20.895.019 20.351 0 16.007 0s-4.888.019-6.595.094c-1.7.075-2.869.35-3.882.744a7.803 7.803 0 00-2.838 1.85A7.867 7.867 0 00.848 5.52C.454 6.539.179 7.702.104 9.402c-.081 1.713-.1 2.257-.1 6.601s.019 4.888.094 6.595c.075 1.7.35 2.869.744 3.882a7.895 7.895 0 001.85 2.838 7.867 7.867 0 002.832 1.844c1.019.394 2.182.669 3.882.744 1.706.075 2.25.094 6.595.094s4.888-.019 6.595-.094c1.7-.075 2.869-.35 3.882-.744a8.184 8.184 0 004.682-4.682c.394-1.019.669-2.182.744-3.882.075-1.707.094-2.251.094-6.595s-.006-4.889-.081-6.595zm-2.882 13.065c-.069 1.563-.331 2.407-.55 2.969a5.31 5.31 0 01-3.038 3.038c-.563.219-1.413.481-2.969.55-1.688.075-2.194.094-6.464.094s-4.782-.019-6.464-.094c-1.563-.069-2.407-.331-2.969-.55a4.926 4.926 0 01-1.838-1.194 4.974 4.974 0 01-1.194-1.838c-.219-.563-.481-1.413-.55-2.969-.075-1.688-.094-2.194-.094-6.464s.019-4.782.094-6.464c.069-1.563.331-2.407.55-2.969a4.868 4.868 0 011.2-1.838A4.974 4.974 0 016.586 3.55c.563-.219 1.413-.481 2.969-.55 1.688-.075 2.194-.094 6.464-.094 4.276 0 4.782.019 6.464.094 1.563.069 2.407.331 2.969.55a4.914 4.914 0 011.838 1.194 4.974 4.974 0 011.194 1.838c.219.563.481 1.413.55 2.969.075 1.688.094 2.194.094 6.464s-.019 4.77-.094 6.458z"/><path d="M16.006 7.783c-4.538 0-8.22 3.682-8.22 8.22s3.682 8.22 8.22 8.22c4.539 0 8.22-3.682 8.22-8.22s-3.682-8.22-8.22-8.22zm0 13.552a5.333 5.333 0 010-10.664 5.333 5.333 0 010 10.664zM26.471 7.458a1.919 1.919 0 11-3.838 0 1.919 1.919 0 013.838 0z"/></symbol><symbol id="twitter" viewBox="0 0 32 32"><path d="M32 6.078c-1.19.522-2.458.868-3.78 1.036a6.523 6.523 0 002.886-3.626 13.11 13.11 0 01-4.16 1.588A6.574 6.574 0 0022.154 3c-3.632 0-6.556 2.948-6.556 6.562 0 .52.044 1.02.152 1.496-5.454-.266-10.28-2.88-13.522-6.862a6.605 6.605 0 00-.898 3.316 6.57 6.57 0 002.914 5.452 6.479 6.479 0 01-2.964-.808v.072c0 3.188 2.274 5.836 5.256 6.446a6.548 6.548 0 01-1.72.216 5.8 5.8 0 01-1.242-.112c.85 2.598 3.262 4.508 6.13 4.57a13.182 13.182 0 01-8.134 2.798c-.538 0-1.054-.024-1.57-.09A18.469 18.469 0 0010.064 29c12.072 0 18.672-10 18.672-18.668 0-.29-.01-.57-.024-.848A13.087 13.087 0 0032 6.078z"/></symbol><symbol id="facebook" viewBox="0 0 32 32"><path d="M21.079 5.313H24V.225C23.496.156 21.763 0 19.744 0c-4.212 0-7.097 2.649-7.097 7.519V12H7.999v5.688h4.648V32h5.699V17.689h4.46l.708-5.688h-5.169V8.082c.001-1.644.444-2.769 2.735-2.769z"/></symbol><symbol id="linkedin" viewBox="0 0 32 32"><path d="M31.992 32v-.001H32V20.263c0-5.741-1.236-10.164-7.948-10.164-3.227 0-5.392 1.771-6.276 3.449h-.093v-2.913h-6.364v21.364h6.627V21.42c0-2.785.528-5.479 3.977-5.479 3.399 0 3.449 3.179 3.449 5.657v10.401h6.62zM.528 10.636h6.635V32H.528V10.636zM3.843 0C1.722 0 0 1.721 0 3.843s1.721 3.879 3.843 3.879c2.121 0 3.843-1.757 3.843-3.879A3.846 3.846 0 003.843 0z"/></symbol><symbol id="map-pin" viewBox="0 0 32 32"><path stroke-linejoin="round" stroke-linecap="round" stroke-width="1.333" d="M29.333 13.273C29.333 22.819 16 31 16 31S2.667 22.818 2.667 13.273C2.667 6.495 8.637 1 16 1s13.333 5.495 13.333 12.273z"/><path stroke-linejoin="round" stroke-linecap="round" stroke-width="1.333" d="M16 19.333a5 5 0 10-.001-10.001A5 5 0 0016 19.333z"/></symbol><symbol id="phone" viewBox="0 0 32 32"><path stroke-linejoin="round" stroke-linecap="round" stroke-width="1.333" d="M31.219 23.585v4.592a3.06 3.06 0 01-3.337 3.061 30.281 30.281 0 01-13.208-4.699 29.847 29.847 0 01-9.183-9.183A30.294 30.294 0 01.792 4.087 3.058 3.058 0 013.838.751H8.43a3.061 3.061 0 013.061 2.632 19.685 19.685 0 001.071 4.301 3.058 3.058 0 01-.689 3.229l-1.944 1.944a24.487 24.487 0 009.183 9.183l1.944-1.944a3.062 3.062 0 013.229-.689c1.388.518 2.831.877 4.301 1.071a3.062 3.062 0 012.633 3.107z"/></symbol><symbol id="mail" viewBox="0 0 32 32"><path stroke-linejoin="round" stroke-linecap="round" stroke-width="1.333" d="M3.714 4.056h24.571c1.689 0 3.071 1.344 3.071 2.986v17.917c0 1.642-1.382 2.986-3.071 2.986H3.714c-1.689 0-3.071-1.344-3.071-2.986V7.042c0-1.642 1.382-2.986 3.071-2.986z"/><path stroke-linejoin="round" stroke-linecap="round" stroke-width="1.333" d="M29.651 7.468L16 17.706 2.349 7.468"/></symbol></defs></svg>